<svg version="1.1" id="Layer_1" xmlns="http://www.w3.org/2000/svg" xmlns:xlink="http://www.w3.org/1999/xlink" x="0px" y="0px"
	 width="100%" viewBox="0 0 2160 474" enable-background="new 0 0 2160 474" xml:space="preserve">
<path fill="#044B94" opacity="0" stroke="none" 
	d="
M43.999992,475.000000 
	C29.668550,475.000000 15.337099,475.000000 1.004237,475.000000 
	C1.002824,317.022644 1.002824,159.045273 1.002824,1.033959 
	C720.882812,1.033959 1440.765625,1.033959 2160.824219,1.033959 
	C2160.824219,158.999847 2160.824219,316.999908 2160.824219,475.000000 
	C2146.915771,475.000000 2132.917725,475.000000 2118.445312,474.592102 
	C2117.781250,473.040741 2117.657227,471.881592 2117.391357,470.755981 
	C2106.969971,426.668274 2087.552490,386.684570 2061.765137,349.681366 
	C2050.692383,333.792694 2037.750488,319.447998 2022.558960,307.407898 
	C2003.361572,292.192749 1982.410645,279.769806 1960.137329,269.481232 
	C1938.339722,259.412323 1915.909912,251.021423 1892.703735,245.141602 
	C1870.202637,239.440445 1847.307251,235.305313 1824.611938,230.359467 
	C1793.531982,223.586472 1762.103760,219.618286 1730.307373,219.095734 
	C1716.354736,218.866440 1702.385864,219.685822 1688.423340,219.977966 
	C1670.634399,220.350220 1652.834717,220.419479 1635.058228,221.103882 
	C1623.632324,221.543747 1612.236084,222.810440 1600.833618,223.789413 
	C1589.264526,224.782715 1577.704102,225.877884 1566.083862,226.532303 
	C1564.014404,218.019592 1561.742432,209.956787 1560.040161,201.775436 
	C1556.238403,183.502182 1553.292236,165.033356 1548.961060,146.891632 
	C1541.354248,115.029549 1521.271118,92.562416 1493.109863,77.118378 
	C1474.458374,66.889610 1453.584351,63.292896 1432.956299,58.646263 
	C1431.156006,54.922508 1429.910034,51.170746 1427.591187,48.279446 
	C1421.409424,40.571320 1412.459595,39.060791 1403.304565,39.050385 
	C1331.161377,38.968380 1259.018311,38.996040 1186.875122,39.011967 
	C1173.051880,39.015015 1165.773560,44.743027 1162.450073,58.077309 
	C1162.289307,58.722012 1162.133301,59.367912 1161.508789,60.008118 
	C1107.367432,59.974464 1053.692261,59.945946 999.946838,59.538338 
	C998.517639,53.719296 998.113098,47.723927 992.582886,44.450417 
	C987.118713,41.216000 981.488770,38.869133 974.773499,38.905659 
	C937.302856,39.109493 899.830566,39.001472 862.358826,39.002548 
	C827.385193,39.003551 792.410461,38.849632 757.438416,39.086643 
	C743.048950,39.184158 732.170959,45.090267 728.572083,59.012226 
	C723.689270,60.014042 719.150513,60.797237 714.748108,62.056995 
	C701.835266,65.752083 688.540344,68.585861 676.204834,73.707352 
	C660.000610,80.435059 646.183899,90.985130 634.685303,104.628441 
	C622.514893,119.068840 614.891968,135.482437 611.038879,153.745834 
	C608.568970,165.452789 606.851440,177.317719 604.422852,189.034363 
	C601.794556,201.714371 598.731628,214.304291 595.433228,226.946960 
	C594.341675,226.955872 593.671387,226.996094 593.009216,226.940308 
	C565.885742,224.655823 538.789917,221.937714 511.630829,220.220139 
	C493.543304,219.076294 475.366180,219.117325 457.228149,219.076828 
	C442.257874,219.043411 427.278564,219.477051 412.317871,220.071396 
	C402.864868,220.446930 393.341431,220.884995 384.019501,222.365219 
	C359.415985,226.272018 334.798920,230.232712 310.379639,235.130966 
	C260.205933,245.195297 212.076767,260.997437 167.859924,287.506927 
	C137.492203,305.713379 112.712303,329.647369 93.488625,359.218323 
	C79.329926,380.998016 66.881889,403.827332 58.048775,428.308075 
	C52.540455,443.574219 48.628395,459.416351 43.999992,475.000000 
z"/>
<path fill="#4A6F78" opacity="1.000000" stroke="none" 
	d="
M1591.000000,475.000000 
	C1251.302368,475.000000 911.604797,475.000000 571.478882,474.598633 
	C582.194885,422.914093 593.260071,371.613586 604.507324,320.353027 
	C614.395325,275.287628 624.445679,230.257690 634.520569,185.233597 
	C636.804016,175.029358 638.373474,164.468460 642.227356,154.855835 
	C649.075806,137.774139 660.804932,123.800972 674.130493,111.195572 
	C690.022217,96.162643 708.844360,88.995140 730.736389,88.993416 
	C849.540527,88.984070 968.344666,88.741089 1087.148804,88.726921 
	C1203.453979,88.713051 1319.760132,88.697769 1436.062866,89.277367 
	C1446.213623,89.327942 1457.044434,92.272980 1466.336670,96.537689 
	C1486.451538,105.769371 1500.842407,122.027863 1512.084839,140.674164 
	C1517.424316,149.529999 1521.756714,159.385956 1524.455444,169.354630 
	C1529.233398,187.002670 1532.373169,205.091995 1536.272461,222.980530 
	C1548.798462,280.442566 1561.387207,337.890930 1573.892212,395.357513 
	C1579.665771,421.889557 1585.301636,448.451599 1591.000000,475.000000 
z"/>
<path fill="#15333E" opacity="1.000000" stroke="none" 
	d="
M1591.444092,475.000000 
	C1585.301636,448.451599 1579.665771,421.889557 1573.892212,395.357513 
	C1561.387207,337.890930 1548.798462,280.442566 1536.272461,222.980530 
	C1532.373169,205.091995 1529.233398,187.002670 1524.455444,169.354630 
	C1521.756714,159.385956 1517.424316,149.529999 1512.084839,140.674164 
	C1500.842407,122.027863 1486.451538,105.769371 1466.336670,96.537689 
	C1457.044434,92.272980 1446.213623,89.327942 1436.062866,89.277367 
	C1319.760132,88.697769 1203.453979,88.713051 1087.148804,88.726921 
	C968.344666,88.741089 849.540527,88.984070 730.736389,88.993416 
	C708.844360,88.995140 690.022217,96.162643 674.130493,111.195572 
	C660.804932,123.800972 649.075806,137.774139 642.227356,154.855835 
	C638.373474,164.468460 636.804016,175.029358 634.520569,185.233597 
	C624.445679,230.257690 614.395325,275.287628 604.507324,320.353027 
	C593.260071,371.613586 582.194885,422.914093 571.025269,474.598633 
	C568.629456,475.000000 566.258850,475.000000 563.380493,474.576294 
	C563.188660,472.015076 563.380188,469.850464 563.838440,467.743896 
	C578.675598,399.528595 593.539246,331.319000 608.396240,263.108032 
	C609.780029,256.754822 609.362793,255.764404 602.802368,254.947418 
	C583.003967,252.481842 563.215454,249.727524 543.338318,248.163849 
	C524.969421,246.718826 506.492950,246.605316 488.060425,246.012070 
	C447.697052,244.712952 407.453522,245.811081 367.587921,252.957169 
	C343.358795,257.300354 318.932587,260.567780 295.777130,269.876038 
	C233.046707,295.093048 183.763504,334.742096 155.167297,397.577942 
	C143.889633,422.358856 135.634674,447.830048 133.000000,475.000000 
	C103.645775,475.000000 74.291542,475.000000 44.468651,475.000000 
	C48.628395,459.416351 52.540455,443.574219 58.048775,428.308075 
	C66.881889,403.827332 79.329926,380.998016 93.488625,359.218323 
	C112.712303,329.647369 137.492203,305.713379 167.859924,287.506927 
	C212.076767,260.997437 260.205933,245.195297 310.379639,235.130966 
	C334.798920,230.232712 359.415985,226.272018 384.019501,222.365219 
	C393.341431,220.884995 402.864868,220.446930 412.317871,220.071396 
	C427.278564,219.477051 442.257874,219.043411 457.228149,219.076828 
	C475.366180,219.117325 493.543304,219.076294 511.630829,220.220139 
	C538.789917,221.937714 565.885742,224.655823 593.009216,226.940308 
	C593.671387,226.996094 594.341675,226.955872 595.704590,227.221344 
	C600.934814,228.505768 605.504517,229.394562 609.991394,230.593475 
	C613.915955,231.642120 615.798340,230.391006 616.664490,226.382156 
	C618.631226,217.278351 621.092346,208.281464 623.066406,199.179062 
	C625.886597,186.175598 626.600098,172.376862 631.460999,160.215942 
	C648.053040,118.706490 673.997803,86.870201 722.018982,80.568085 
	C723.452454,80.379974 725.479126,78.518204 725.798340,77.111923 
	C727.152954,71.145279 727.966980,65.055901 728.978394,59.011353 
	C732.170959,45.090267 743.048950,39.184158 757.438416,39.086643 
	C792.410461,38.849632 827.385193,39.003551 862.358826,39.002548 
	C899.830566,39.001472 937.302856,39.109493 974.773499,38.905659 
	C981.488770,38.869133 987.118713,41.216000 992.582886,44.450417 
	C998.113098,47.723927 998.517639,53.719296 999.828735,59.886375 
	C999.654663,64.587608 999.728394,68.580383 999.359680,72.531860 
	C998.638855,80.255882 998.923218,80.656807 1006.922241,80.656456 
	C1056.347534,80.654282 1105.772827,80.656624 1155.198120,80.650291 
	C1156.694580,80.650093 1158.501221,81.077698 1159.608521,80.399757 
	C1160.974487,79.563545 1162.617310,77.792267 1162.642334,76.398163 
	C1162.740479,70.942284 1162.248047,65.475784 1161.975098,60.013245 
	C1162.133301,59.367912 1162.289307,58.722012 1162.450073,58.077309 
	C1165.773560,44.743027 1173.051880,39.015015 1186.875122,39.011967 
	C1259.018311,38.996040 1331.161377,38.968380 1403.304565,39.050385 
	C1412.459595,39.060791 1421.409424,40.571320 1427.591187,48.279446 
	C1429.910034,51.170746 1431.156006,54.922508 1433.000977,59.041298 
	C1433.742554,64.724129 1434.846924,69.645706 1434.867310,74.571747 
	C1434.885986,79.123154 1436.548706,80.479057 1440.918213,80.895142 
	C1457.654175,82.488869 1472.925171,87.930267 1486.212036,98.648094 
	C1497.577271,107.815804 1507.322388,118.411652 1515.723877,130.281174 
	C1525.380371,143.923599 1531.481567,158.842255 1534.234009,175.534775 
	C1537.095459,192.888336 1541.666504,209.964752 1545.712891,227.109711 
	C1546.061890,228.588440 1548.278931,230.900558 1549.291382,230.737274 
	C1554.964722,229.822372 1560.534668,228.265869 1566.139893,226.928436 
	C1577.704102,225.877884 1589.264526,224.782715 1600.833618,223.789413 
	C1612.236084,222.810440 1623.632324,221.543747 1635.058228,221.103882 
	C1652.834717,220.419479 1670.634399,220.350220 1688.423340,219.977966 
	C1702.385864,219.685822 1716.354736,218.866440 1730.307373,219.095734 
	C1762.103760,219.618286 1793.531982,223.586472 1824.611938,230.359467 
	C1847.307251,235.305313 1870.202637,239.440445 1892.703735,245.141602 
	C1915.909912,251.021423 1938.339722,259.412323 1960.137329,269.481232 
	C1982.410645,279.769806 2003.361572,292.192749 2022.558960,307.407898 
	C2037.750488,319.447998 2050.692383,333.792694 2061.765137,349.681366 
	C2087.552490,386.684570 2106.969971,426.668274 2117.391357,470.755981 
	C2117.657227,471.881592 2117.781250,473.040741 2117.985840,474.592102 
	C2088.645752,475.000000 2059.291504,475.000000 2029.482666,474.576172 
	C2026.551636,454.585663 2022.118164,435.562531 2015.170898,417.010559 
	C1985.536255,337.872284 1927.640625,288.882629 1848.823242,264.179321 
	C1811.015015,252.329361 1771.247437,247.784546 1731.546143,246.167099 
	C1709.303345,245.260895 1686.964233,246.475906 1664.675293,247.014877 
	C1646.572754,247.452606 1628.441284,247.781494 1610.394897,249.128159 
	C1593.157959,250.414413 1576.000122,252.839478 1558.837524,255.001175 
	C1552.717285,255.772018 1552.240967,256.853149 1553.575073,262.977570 
	C1566.801636,323.697174 1580.068359,384.408051 1593.233643,445.140900 
	C1595.380615,455.045197 1597.088989,465.044586 1599.000000,475.000000 
	C1596.629395,475.000000 1594.258911,475.000000 1591.444092,475.000000 
z"/>
<path fill="#4A6F78" opacity="1.000000" stroke="none" 
	d="
M1599.468628,475.000000 
	C1597.088989,465.044586 1595.380615,455.045197 1593.233643,445.140900 
	C1580.068359,384.408051 1566.801636,323.697174 1553.575073,262.977570 
	C1552.240967,256.853149 1552.717285,255.772018 1558.837524,255.001175 
	C1576.000122,252.839478 1593.157959,250.414413 1610.394897,249.128159 
	C1628.441284,247.781494 1646.572754,247.452606 1664.675293,247.014877 
	C1686.964233,246.475906 1709.303345,245.260895 1731.546143,246.167099 
	C1771.247437,247.784546 1811.015015,252.329361 1848.823242,264.179321 
	C1927.640625,288.882629 1985.536255,337.872284 2015.170898,417.010559 
	C2022.118164,435.562531 2026.551636,454.585663 2029.013916,474.576172 
	C1885.979126,475.000000 1742.958130,475.000000 1599.468628,475.000000 
z"/>
<path fill="#4A6F78" opacity="1.000000" stroke="none" 
	d="
M133.468658,475.000000 
	C135.634674,447.830048 143.889633,422.358856 155.167297,397.577942 
	C183.763504,334.742096 233.046707,295.093048 295.777130,269.876038 
	C318.932587,260.567780 343.358795,257.300354 367.587921,252.957169 
	C407.453522,245.811081 447.697052,244.712952 488.060425,246.012070 
	C506.492950,246.605316 524.969421,246.718826 543.338318,248.163849 
	C563.215454,249.727524 583.003967,252.481842 602.802368,254.947418 
	C609.362793,255.764404 609.780029,256.754822 608.396240,263.108032 
	C593.539246,331.319000 578.675598,399.528595 563.838440,467.743896 
	C563.380188,469.850464 563.188660,472.015076 562.936401,474.576294 
	C419.979095,475.000000 276.958221,475.000000 133.468658,475.000000 
z"/>
<path fill="#4A6F78" opacity="1.000000" stroke="none" 
	d="
M1566.083862,226.532318 
	C1560.534668,228.265869 1554.964722,229.822372 1549.291382,230.737274 
	C1548.278931,230.900558 1546.061890,228.588440 1545.712891,227.109711 
	C1541.666504,209.964752 1537.095459,192.888336 1534.234009,175.534775 
	C1531.481567,158.842255 1525.380371,143.923599 1515.723877,130.281174 
	C1507.322388,118.411652 1497.577271,107.815804 1486.212036,98.648094 
	C1472.925171,87.930267 1457.654175,82.488869 1440.918213,80.895142 
	C1436.548706,80.479057 1434.885986,79.123154 1434.867310,74.571747 
	C1434.846924,69.645706 1433.742554,64.724129 1433.066284,59.405571 
	C1453.584351,63.292896 1474.458374,66.889610 1493.109863,77.118378 
	C1521.271118,92.562416 1541.354248,115.029549 1548.961060,146.891632 
	C1553.292236,165.033356 1556.238403,183.502182 1560.040161,201.775436 
	C1561.742432,209.956787 1564.014404,218.019592 1566.083862,226.532318 
z"/>
<path fill="#4A6F78" opacity="1.000000" stroke="none" 
	d="
M728.572021,59.012222 
	C727.966980,65.055901 727.152954,71.145279 725.798340,77.111923 
	C725.479126,78.518204 723.452454,80.379974 722.018982,80.568085 
	C673.997803,86.870201 648.053040,118.706490 631.460999,160.215942 
	C626.600098,172.376862 625.886597,186.175598 623.066406,199.179062 
	C621.092346,208.281464 618.631226,217.278351 616.664490,226.382156 
	C615.798340,230.391006 613.915955,231.642120 609.991394,230.593475 
	C605.504517,229.394562 600.934814,228.505768 596.129639,227.207870 
	C598.731628,214.304291 601.794556,201.714371 604.422852,189.034363 
	C606.851440,177.317719 608.568970,165.452789 611.038879,153.745834 
	C614.891968,135.482437 622.514893,119.068840 634.685303,104.628441 
	C646.183899,90.985130 660.000610,80.435059 676.204834,73.707352 
	C688.540344,68.585861 701.835266,65.752083 714.748108,62.056995 
	C719.150513,60.797237 723.689270,60.014042 728.572021,59.012222 
z"/>
<path fill="#4A6F78" opacity="1.000000" stroke="none" 
	d="
M1161.508911,60.008110 
	C1162.248047,65.475784 1162.740479,70.942284 1162.642334,76.398163 
	C1162.617310,77.792267 1160.974487,79.563545 1159.608521,80.399757 
	C1158.501221,81.077698 1156.694580,80.650093 1155.198120,80.650291 
	C1105.772827,80.656624 1056.347534,80.654282 1006.922241,80.656456 
	C998.923218,80.656807 998.638855,80.255882 999.359680,72.531860 
	C999.728394,68.580383 999.654663,64.587608 999.898926,60.265465 
	C1053.692261,59.945946 1107.367432,59.974464 1161.508911,60.008110 
z"/>
</svg>